<svg aria-hidden="true" style="position: absolute; width: 0; height: 0; overflow: hidden;" version="1.1" xmlns="http://www.w3.org/2000/svg" xmlns:xlink="http://www.w3.org/1999/xlink">
<defs>
<symbol id="icon-Arrow" viewBox="0 0 36 32">
<path stroke-linejoin="round" stroke-linecap="round" stroke-miterlimit="4" stroke-width="4" d="M17.906 4.516l13.578 12.258-13.578 12.258M29.598 16.774h-27.534"></path>
</symbol>
<symbol id="icon-Basket" viewBox="0 0 36 32">
<path stroke-linejoin="round" stroke-linecap="round" stroke-miterlimit="4" stroke-width="2" d="M15.425 30.667c0.9 0 1.63-0.73 1.63-1.63s-0.73-1.63-1.63-1.63c-0.9 0-1.63 0.73-1.63 1.63s0.73 1.63 1.63 1.63z"></path>
<path stroke-linejoin="round" stroke-linecap="round" stroke-miterlimit="4" stroke-width="2" d="M26.833 30.667c0.9 0 1.63-0.73 1.63-1.63s-0.73-1.63-1.63-1.63c-0.9 0-1.63 0.73-1.63 1.63s0.73 1.63 1.63 1.63z"></path>
<path stroke-linejoin="round" stroke-linecap="round" stroke-miterlimit="4" stroke-width="2.6667" d="M2.388 1.333h5.043l3.782 21.431h20.17"></path>
<path stroke-linejoin="round" stroke-linecap="round" stroke-miterlimit="4" stroke-width="2.6667" d="M10.536 17.578l20.33 0.143c0.146 0 0.287-0.050 0.4-0.143s0.19-0.221 0.219-0.364l2.269-11.346c0.018-0.091 0.016-0.186-0.007-0.276s-0.065-0.175-0.124-0.247-0.134-0.13-0.218-0.17c-0.084-0.040-0.177-0.061-0.27-0.060h-24.657"></path>
</symbol>
<symbol id="icon-Fasebook" viewBox="0 0 33 32">
<path d="M32.481 16.455c0-8.636-7.272-15.639-16.24-15.639s-16.24 7.003-16.24 15.639c0 7.805 5.938 14.275 13.703 15.45v-10.928h-4.125v-4.522h4.125v-3.445c0-3.919 2.425-6.085 6.134-6.085 1.777 0 3.636 0.306 3.636 0.306v3.849h-2.049c-2.016 0-2.647 1.205-2.647 2.444v2.932h4.504l-0.719 4.522h-3.784v10.929c7.765-1.174 13.703-7.643 13.703-15.451z"></path>
</symbol>
<symbol id="icon-Instagram" viewBox="0 0 32 32">
<path d="M21.854 3.621c1.703 0.005 3.335 0.659 4.54 1.818s1.883 2.731 1.888 4.372v12.379c-0.005 1.64-0.684 3.212-1.888 4.372s-2.836 1.814-4.54 1.818h-12.855c-1.703-0.005-3.335-0.659-4.54-1.818s-1.883-2.731-1.888-4.372v-12.379c0.005-1.64 0.684-3.212 1.888-4.372s2.836-1.814 4.54-1.818h12.855zM21.854 1.145h-12.855c-4.949 0-8.999 3.899-8.999 8.666v12.379c0 4.766 4.049 8.666 8.999 8.666h12.855c4.95 0 8.999-3.9 8.999-8.666v-12.379c0-4.766-4.049-8.666-8.999-8.666z"></path>
<path d="M23.781 9.812c-0.381 0-0.754-0.109-1.071-0.313s-0.564-0.494-0.71-0.833-0.184-0.713-0.11-1.073c0.074-0.36 0.258-0.691 0.528-0.951s0.613-0.437 0.987-0.508 0.762-0.035 1.114 0.106c0.352 0.141 0.653 0.379 0.865 0.684s0.325 0.664 0.325 1.032c0 0.244-0.049 0.486-0.146 0.711s-0.239 0.43-0.418 0.603c-0.179 0.173-0.392 0.309-0.626 0.402s-0.485 0.141-0.739 0.14zM15.426 11.050c1.017 0 2.011 0.29 2.857 0.835s1.505 1.317 1.894 2.222c0.389 0.905 0.491 1.901 0.293 2.861s-0.688 1.843-1.407 2.536c-0.719 0.692-1.635 1.164-2.633 1.355s-2.031 0.093-2.971-0.282c-0.94-0.375-1.743-1.010-2.308-1.824s-0.867-1.772-0.867-2.751c0.001-1.313 0.544-2.572 1.508-3.5s2.271-1.45 3.635-1.452zM15.426 8.574c-1.526 0-3.017 0.436-4.285 1.252s-2.257 1.976-2.841 3.333c-0.584 1.357-0.737 2.851-0.439 4.291s1.032 2.764 2.111 3.803c1.079 1.039 2.453 1.746 3.949 2.033s3.047 0.14 4.456-0.423c1.409-0.562 2.614-1.514 3.462-2.736s1.3-2.657 1.3-4.127c0-1.97-0.813-3.859-2.259-5.252s-3.408-2.175-5.454-2.175z"></path>
</symbol>
<symbol id="icon-Logo1" viewBox="0 0 22 32">
<path fill="none" stroke="#7eb693" style="stroke: var(--color1, #7eb693)" stroke-linejoin="miter" stroke-linecap="butt" stroke-miterlimit="10" stroke-width="1.1429" d="M1.117 23.958h19.932"></path>
<path fill="none" stroke="#7eb693" style="stroke: var(--color1, #7eb693)" stroke-linejoin="miter" stroke-linecap="butt" stroke-miterlimit="10" stroke-width="1.1429" d="M3.369 27.633h15.429"></path>
<path fill="none" stroke="#7eb693" style="stroke: var(--color1, #7eb693)" stroke-linejoin="miter" stroke-linecap="butt" stroke-miterlimit="10" stroke-width="1.1429" d="M10.797 0.776v8"></path>
<path fill="none" stroke="#7eb693" style="stroke: var(--color1, #7eb693)" stroke-linejoin="miter" stroke-linecap="butt" stroke-miterlimit="10" stroke-width="1.1429" d="M10.84 8.367v15.104"></path>
<path fill="none" stroke="#7eb693" style="stroke: var(--color1, #7eb693)" stroke-linejoin="miter" stroke-linecap="butt" stroke-miterlimit="10" stroke-width="1.1429" d="M17.16 2.52l-6.32 6.334"></path>
<path fill="none" stroke="#7eb693" style="stroke: var(--color1, #7eb693)" stroke-linejoin="miter" stroke-linecap="butt" stroke-miterlimit="10" stroke-width="1.1429" d="M19.59 4.956l-8.751 8.77"></path>
<path fill="none" stroke="#7eb693" style="stroke: var(--color1, #7eb693)" stroke-linejoin="miter" stroke-linecap="butt" stroke-miterlimit="10" stroke-width="1.1429" d="M21.049 8.854l-10.209 9.744"></path>
<path fill="none" stroke="#7eb693" style="stroke: var(--color1, #7eb693)" stroke-linejoin="miter" stroke-linecap="butt" stroke-miterlimit="10" stroke-width="1.1429" d="M21.535 13.239l-10.695 10.719"></path>
<path fill="none" stroke="#7eb693" style="stroke: var(--color1, #7eb693)" stroke-linejoin="miter" stroke-linecap="butt" stroke-miterlimit="10" stroke-width="1.1429" d="M21.535 18.112l-5.834 5.847"></path>
<path fill="none" stroke="#7eb693" style="stroke: var(--color1, #7eb693)" stroke-linejoin="miter" stroke-linecap="butt" stroke-miterlimit="10" stroke-width="1.1429" d="M0.631 18.112l5.834 5.847"></path>
<path fill="none" stroke="#7eb693" style="stroke: var(--color1, #7eb693)" stroke-linejoin="miter" stroke-linecap="butt" stroke-miterlimit="10" stroke-width="1.1429" d="M5.006 2.52l5.834 6.334"></path>
<path fill="none" stroke="#7eb693" style="stroke: var(--color1, #7eb693)" stroke-linejoin="miter" stroke-linecap="butt" stroke-miterlimit="10" stroke-width="1.1429" d="M2.576 4.956l8.264 8.77"></path>
<path fill="none" stroke="#7eb693" style="stroke: var(--color1, #7eb693)" stroke-linejoin="miter" stroke-linecap="butt" stroke-miterlimit="10" stroke-width="1.1429" d="M1.117 8.367l9.723 10.232"></path>
<path fill="none" stroke="#7eb693" style="stroke: var(--color1, #7eb693)" stroke-linejoin="miter" stroke-linecap="butt" stroke-miterlimit="10" stroke-width="1.1429" d="M0.631 12.752l10.209 10.719"></path>
<path fill="none" stroke="#7eb693" style="stroke: var(--color1, #7eb693)" stroke-linejoin="miter" stroke-linecap="butt" stroke-miterlimit="10" stroke-width="1.1429" d="M11.083 31.266c-5.772 0-10.452-4.83-10.452-10.789v-9.117c0-5.958 4.68-10.789 10.452-10.789 5.773 0 10.452 4.831 10.452 10.789v9.117c0.001 5.959-4.679 10.789-10.452 10.789z"></path>
</symbol>
<symbol id="icon-Peopleava" viewBox="0 0 29 32">
<path d="M19.706 2.327c-1.347-1.501-3.229-2.327-5.306-2.327-2.088 0-3.976 0.821-5.317 2.313-1.356 1.508-2.016 3.557-1.861 5.77 0.307 4.366 3.527 7.917 7.178 7.917s6.865-3.551 7.177-7.916c0.157-2.193-0.508-4.238-1.871-5.757zM26.584 32h-24.369c-0.319 0.004-0.635-0.065-0.925-0.202s-0.546-0.34-0.751-0.593c-0.45-0.555-0.631-1.313-0.497-2.079 0.584-3.344 2.408-6.154 5.274-8.126 2.546-1.751 5.772-2.714 9.083-2.714s6.537 0.964 9.083 2.714c2.866 1.972 4.689 4.781 5.274 8.125 0.134 0.766-0.047 1.524-0.497 2.079-0.204 0.253-0.461 0.455-0.751 0.593s-0.606 0.207-0.925 0.203z"></path>
</symbol>
<symbol id="icon-Pintrest" viewBox="0 0 30 32">
<path d="M14.928 1.091c-8.244 0-14.928 6.681-14.928 14.922 0 6.108 3.679 11.358 8.937 13.669-0.040-1.039-0.007-2.291 0.26-3.424 0.287-1.212 1.919-8.133 1.919-8.133s-0.48-0.953-0.48-2.358c0-2.212 1.28-3.864 2.879-3.864 1.36 0 2.013 1.019 2.013 2.238 0 1.366-0.873 3.404-1.32 5.296-0.373 1.585 0.793 2.871 2.359 2.871 2.826 0 4.732-3.63 4.732-7.934 0-3.271-2.206-5.715-6.211-5.715-4.525 0-7.351 3.377-7.351 7.148 0 1.299 0.387 2.218 0.986 2.924 0.273 0.326 0.313 0.46 0.213 0.833-0.073 0.273-0.233 0.933-0.307 1.199-0.1 0.38-0.407 0.513-0.746 0.373-2.086-0.853-3.059-3.131-3.059-5.702 0-4.237 3.579-9.319 10.67-9.319 5.698 0 9.45 4.123 9.45 8.547 0 5.855-3.259 10.225-8.057 10.225-1.613 0-3.126-0.873-3.645-1.859 0 0-0.866 3.437-1.053 4.103-0.313 1.152-0.933 2.298-1.499 3.197 1.374 0.405 2.799 0.612 4.232 0.613 8.244 0 14.928-6.681 14.928-14.921s-6.678-14.928-14.922-14.928z"></path>
</symbol>
<symbol id="icon-Playbutton" viewBox="0 0 20 32">
<path stroke-linejoin="round" stroke-linecap="round" stroke-miterlimit="4" stroke-width="3.6923" d="M2.462 29.538l13.538-13.538-13.538-13.538"></path>
</symbol>
<symbol id="icon-Search" viewBox="0 0 34 32">
<path d="M32.715 28.788l-7.254-7.254c1.746-2.325 2.689-5.155 2.686-8.063 0-7.428-6.043-13.471-13.471-13.471s-13.471 6.043-13.471 13.471c0 7.428 6.043 13.471 13.471 13.471 2.908 0.003 5.738-0.94 8.063-2.686l7.254 7.254c0.367 0.328 0.846 0.503 1.338 0.49s0.961-0.215 1.309-0.564c0.348-0.348 0.55-0.817 0.564-1.309s-0.161-0.971-0.49-1.338zM5.054 13.471c0-1.903 0.564-3.763 1.622-5.346s2.56-2.816 4.318-3.544c1.758-0.728 3.693-0.919 5.559-0.548s3.581 1.288 4.926 2.633 2.262 3.060 2.633 4.927c0.371 1.866 0.181 3.801-0.547 5.559s-1.961 3.261-3.544 4.318c-1.582 1.057-3.443 1.622-5.346 1.622-2.551-0.003-4.997-1.018-6.8-2.822s-2.819-4.249-2.822-6.8z"></path>
</symbol>
<symbol id="icon-Star" viewBox="0 0 141 32">
<path fill="#ffa858" style="fill: var(--color2, #ffa858)" d="M14.616 5.21c0.518-1.522 2.671-1.522 3.189 0l1.656 4.866c0.232 0.683 0.873 1.142 1.594 1.142h5.188c1.65 0 2.316 2.128 0.96 3.068l-4.060 2.816c-0.618 0.428-0.877 1.215-0.634 1.927l1.582 4.649c0.524 1.538-1.219 2.853-2.554 1.927l-4.366-3.028c-0.577-0.401-1.342-0.401-1.92 0l-4.366 3.028c-1.335 0.926-3.078-0.389-2.554-1.927l1.582-4.649c0.242-0.712-0.017-1.498-0.635-1.927l-4.060-2.816c-1.356-0.941-0.691-3.068 0.96-3.068h5.188c0.721 0 1.362-0.459 1.594-1.142l1.656-4.866z"></path>
<path fill="#ffa858" style="fill: var(--color2, #ffa858)" d="M41.871 5.456c0.504-1.552 2.699-1.552 3.204 0l1.494 4.598c0.226 0.694 0.872 1.164 1.602 1.164h4.835c1.632 0 2.31 2.088 0.99 3.047l-3.912 2.842c-0.59 0.429-0.837 1.189-0.612 1.883l1.494 4.599c0.504 1.552-1.272 2.842-2.592 1.883l-3.912-2.842c-0.59-0.429-1.39-0.429-1.98 0l-3.911 2.842c-1.32 0.959-3.096-0.331-2.592-1.883l1.494-4.599c0.226-0.694-0.022-1.454-0.612-1.883l-3.912-2.842c-1.32-0.959-0.642-3.047 0.99-3.047h4.835c0.73 0 1.376-0.47 1.602-1.164l1.494-4.598z"></path>
<path fill="#ffa858" style="fill: var(--color2, #ffa858)" d="M69.14 5.21c0.518-1.522 2.671-1.522 3.189 0l1.656 4.866c0.232 0.683 0.873 1.142 1.594 1.142h5.188c1.65 0 2.316 2.128 0.96 3.068l-4.060 2.816c-0.618 0.428-0.877 1.215-0.635 1.927l1.582 4.649c0.523 1.538-1.219 2.853-2.554 1.927l-4.366-3.028c-0.577-0.401-1.342-0.401-1.919 0l-4.366 3.028c-1.335 0.926-3.078-0.389-2.554-1.927l1.582-4.649c0.242-0.712-0.017-1.498-0.635-1.927l-4.060-2.816c-1.356-0.941-0.691-3.068 0.96-3.068h5.188c0.721 0 1.362-0.459 1.594-1.142l1.656-4.866z"></path>
<path fill="#ffa858" style="fill: var(--color2, #ffa858)" d="M96.395 5.456c0.504-1.552 2.699-1.552 3.204 0l1.494 4.598c0.226 0.694 0.872 1.164 1.602 1.164h4.835c1.632 0 2.31 2.088 0.99 3.047l-3.912 2.842c-0.59 0.429-0.837 1.189-0.612 1.883l1.494 4.599c0.504 1.552-1.272 2.842-2.592 1.883l-3.911-2.842c-0.59-0.429-1.39-0.429-1.98 0l-3.912 2.842c-1.32 0.959-3.096-0.331-2.592-1.883l1.494-4.599c0.226-0.694-0.022-1.454-0.612-1.883l-3.912-2.842c-1.32-0.959-0.642-3.047 0.99-3.047h4.835c0.73 0 1.376-0.47 1.602-1.164l1.494-4.598z"></path>
<path fill="#ffa858" style="fill: var(--color2, #ffa858)" d="M123.665 5.21c0.518-1.522 2.671-1.522 3.189 0l1.657 4.866c0.232 0.683 0.873 1.142 1.594 1.142h5.188c1.651 0 2.316 2.128 0.96 3.068l-4.060 2.816c-0.618 0.428-0.877 1.215-0.635 1.927l1.582 4.649c0.523 1.538-1.219 2.853-2.554 1.927l-4.366-3.028c-0.577-0.401-1.342-0.401-1.92 0l-4.366 3.028c-1.335 0.926-3.078-0.389-2.554-1.927l1.582-4.649c0.242-0.712-0.017-1.498-0.634-1.927l-4.060-2.816c-1.356-0.941-0.691-3.068 0.96-3.068h5.188c0.721 0 1.362-0.459 1.594-1.142l1.656-4.866z"></path>
</symbol>
<symbol id="icon-Twitter" viewBox="0 0 40 32">
<path d="M38.81 4.713c-1.436 0.624-2.955 1.035-4.51 1.22 1.634-0.957 2.863-2.477 3.456-4.275-1.545 0.903-3.232 1.537-4.989 1.874-0.74-0.776-1.63-1.393-2.616-1.813s-2.047-0.637-3.119-0.635c-4.34 0-7.852 3.461-7.852 7.728-0.003 0.594 0.065 1.185 0.203 1.763-3.112-0.146-6.16-0.94-8.947-2.331s-5.254-3.349-7.242-5.748c-0.697 1.176-1.066 2.517-1.068 3.884 0 2.68 1.398 5.048 3.509 6.436-1.251-0.030-2.476-0.361-3.571-0.965v0.096c0 3.748 2.712 6.867 6.3 7.576-0.675 0.18-1.37 0.271-2.069 0.271-0.496 0.001-0.99-0.047-1.476-0.144 0.998 3.070 3.901 5.304 7.341 5.367-2.795 2.154-6.227 3.318-9.755 3.31-0.626-0.001-1.252-0.038-1.874-0.112 3.59 2.292 7.763 3.505 12.022 3.493 14.464 0 22.366-11.779 22.366-21.996 0-0.335-0.009-0.67-0.025-0.997 1.534-1.091 2.861-2.447 3.918-4.004z"></path>
</symbol>
</defs>
</svg>
